<svg width="33" height="39" viewBox="0 0 33 39" fill="none" xmlns="http://www.w3.org/2000/svg">
<g clip-path="url(#clip0_5_9)">
<path d="M10.1048 0.111261C9.9238 0.112997 9.73589 0.156895 9.56469 0.252278C9.02103 0.555184 8.82163 1.25742 9.12276 1.80346L10.3504 4.03152C7.3928 5.87088 5.43297 9.01257 5.43297 12.5983C5.43297 12.6133 5.43293 12.6359 5.43297 12.6582C5.43298 12.6661 5.4329 12.6705 5.43297 12.6794C5.43297 12.6911 5.43297 12.7082 5.43297 12.7111V13.2646C4.86495 12.6077 4.02996 12.1929 3.09704 12.1929C1.38788 12.1929 0 13.5879 0 15.3058V24.8949C0 26.6129 1.38788 28.0079 3.09704 28.0079C4.02996 28.0079 4.86495 27.593 5.43297 26.9361V28.2793C5.43297 30.0902 6.90723 31.5721 8.70889 31.5721H9.54014V35.8378C9.54014 37.5557 10.928 38.9507 12.6372 38.9507C14.3463 38.9507 15.7342 37.5557 15.7342 35.8378V31.5721H17.1723V35.8378C17.1723 37.5557 18.5601 38.9507 20.2693 38.9507C21.9785 38.9507 23.3663 37.5557 23.3663 35.8378V31.5721H24.1976C25.9992 31.5721 27.4735 30.0902 27.4735 28.2793V26.9361C28.0415 27.593 28.8765 28.0079 29.8094 28.0079C31.5186 28.0079 32.9065 26.6129 32.9065 24.8949V15.3058C32.9065 13.5879 31.5186 12.1929 29.8094 12.1929C28.8765 12.1929 28.0415 12.6077 27.4735 13.2646V12.7217V12.7111C27.4736 12.6941 27.4735 12.6772 27.4735 12.6794C27.4737 12.6456 27.4735 12.6186 27.4735 12.5983C27.4735 9.0132 25.5093 5.87455 22.5526 4.03505L23.7837 1.80346C24.0848 1.25742 23.8854 0.555181 23.3418 0.252275C23.1706 0.156891 22.9827 0.112996 22.8016 0.111258C22.4002 0.107395 22.0061 0.320067 21.7985 0.696477L20.5113 3.03383C19.2527 2.56697 17.8832 2.31112 16.4532 2.31112C15.0248 2.31112 13.6528 2.56435 12.3952 3.0303L11.108 0.696477C10.9004 0.320066 10.5063 0.107404 10.1048 0.111258V0.111261Z" fill="#FBFAF8"/>
<path d="M3.09722 13.0037C1.82177 13.0037 0.806885 14.0238 0.806885 15.3058V24.8949C0.806885 26.1769 1.82177 27.197 3.09722 27.197C4.37267 27.197 5.38756 26.1769 5.38756 24.8949V15.3058C5.38756 14.0238 4.37267 13.0037 3.09722 13.0037ZM29.8096 13.0037C28.5342 13.0037 27.5193 14.0238 27.5193 15.3058V24.8949C27.5193 26.1769 28.5342 27.197 29.8096 27.197C31.0851 27.197 32.1 26.1769 32.1 24.8949V15.3058C32.1 14.0238 31.0851 13.0037 29.8096 13.0037Z" fill="#191826"/>
<path d="M12.6373 23.9465C11.3618 23.9465 10.3469 24.9666 10.3469 26.2486V35.8378C10.3469 37.1198 11.3618 38.1398 12.6373 38.1398C13.9127 38.1398 14.9276 37.1198 14.9276 35.8378V26.2486C14.9276 24.9666 13.9127 23.9465 12.6373 23.9465ZM20.2694 23.9465C18.9939 23.9465 17.979 24.9666 17.979 26.2486V35.8378C17.979 37.1198 18.9939 38.1398 20.2694 38.1398C21.5448 38.1398 22.5597 37.1198 22.5597 35.8378V26.2486C22.5597 24.9666 21.5448 23.9465 20.2694 23.9465Z" fill="#191826"/>
<path d="M10.1119 0.922135C10.0578 0.922692 10.0073 0.936732 9.9576 0.964439C9.79428 1.05543 9.74057 1.24407 9.83133 1.40864L11.4447 4.33826C8.34062 5.96171 6.24395 9.04693 6.23975 12.5877H26.6669C26.6627 9.04693 24.566 5.96171 21.4619 4.33826L23.0753 1.40864C23.1661 1.24407 23.1123 1.05543 22.949 0.964439C22.8993 0.936732 22.8488 0.922654 22.7947 0.922135C22.6788 0.921011 22.5689 0.97922 22.5071 1.09135L20.8726 4.0527C19.5356 3.45659 18.0359 3.12199 16.4533 3.12199C14.8707 3.12199 13.371 3.45659 12.034 4.0527L10.3995 1.09135C10.3377 0.97922 10.2278 0.921018 10.1119 0.922135ZM6.23975 13.3986V28.2793C6.23975 29.6543 7.34101 30.7612 8.70896 30.7612H24.1977C25.5656 30.7612 26.6669 29.6543 26.6669 28.2793V13.3986H6.23975Z" fill="#191826"/>
<path d="M11.7393 7.11621C11.2729 7.11621 10.887 7.50418 10.887 7.97289C10.887 8.4416 11.2729 8.82956 11.7393 8.82956C12.2056 8.82956 12.5916 8.4416 12.5916 7.97289C12.5916 7.50418 12.2056 7.11621 11.7393 7.11621ZM21.1672 7.11621C20.7009 7.11621 20.3149 7.50418 20.3149 7.97289C20.3149 8.4416 20.7009 8.82956 21.1672 8.82956C21.6335 8.82956 22.0195 8.4416 22.0195 7.97289C22.0195 7.50418 21.6335 7.11621 21.1672 7.11621Z" fill="#FBFAF8"/>
</g>
<defs>
<clipPath id="clip0_5_9">
<rect width="33" height="39" fill="white"/>
</clipPath>
</defs>
</svg>
