<svg width="24" height="18" viewBox="0 0 24 18" fill="none" xmlns="http://www.w3.org/2000/svg">
<g clip-path="url(#clip0_5_26)">
<path d="M24 2.19187C23.117 2.55164 22.168 2.79479 21.172 2.90414C22.1886 2.3443 22.9693 1.45783 23.3369 0.401611C22.3856 0.919924 21.3318 1.29638 20.2102 1.49929C19.312 0.620162 18.0323 0.0708008 16.6162 0.0708008C13.8968 0.0708008 11.6921 2.09607 11.6921 4.59408C11.6921 4.9486 11.7358 5.29385 11.8197 5.6249C7.72742 5.43627 4.09929 3.63544 1.67076 0.898794C1.24692 1.56687 1.0041 2.34389 1.0041 3.17285C1.0041 4.74215 1.87346 6.12668 3.19464 6.93782C2.38745 6.91435 1.62827 6.71088 0.964337 6.37209C0.963986 6.39096 0.963986 6.40991 0.963986 6.42894C0.963986 8.62058 2.66125 10.4488 4.91377 10.8643C4.50056 10.9677 4.06558 11.0229 3.61646 11.0229C3.2992 11.0229 2.99072 10.9946 2.69014 10.9418C3.31667 12.7389 5.13508 14.0467 7.28972 14.0832C5.60456 15.2964 3.48144 16.0195 1.17459 16.0195C0.777175 16.0195 0.385208 15.9982 0 15.9564C2.17904 17.2398 4.76726 17.9886 7.5479 17.9886C16.6047 17.9886 21.5572 11.096 21.5572 5.1186C21.5572 4.92247 21.5525 4.72739 21.543 4.53343C22.505 3.89569 23.3398 3.09898 24 2.19187Z" fill="#191826"/>
</g>
<defs>
<clipPath id="clip0_5_26">
<rect width="24" height="18" fill="white"/>
</clipPath>
</defs>
</svg>
