<svg width="24" height="30" viewBox="0 0 24 30" fill="none" xmlns="http://www.w3.org/2000/svg">
<g clip-path="url(#clip0_4_149)">
<path d="M20.0441 15.9077C20.0855 20.439 23.9571 21.9469 24 21.9662C23.9673 22.0725 23.3814 24.1151 21.9602 26.2249C20.7317 28.049 19.4567 29.8663 17.4482 29.904C15.4746 29.9409 14.8399 28.715 12.5836 28.715C10.3279 28.715 9.62277 29.8663 7.75454 29.9409C5.81578 30.0154 4.33944 27.9684 3.10073 26.1511C0.569559 22.4336 -1.36478 15.6463 1.23255 11.0648C2.52284 8.78961 4.8287 7.34886 7.3315 7.31192C9.2353 7.27502 11.0323 8.61307 12.1961 8.61307C13.3592 8.61307 15.5429 7.00395 17.8385 7.24027C18.7996 7.28091 21.4972 7.63464 23.2294 10.2104C23.0899 10.2983 20.0106 12.1194 20.0441 15.9077V15.9077ZM16.3349 4.78083C17.3642 3.51513 18.057 1.75315 17.868 0C16.3843 0.0605762 14.5903 1.00436 13.5261 2.26937C12.5724 3.38959 11.7371 5.18257 11.9625 6.90103C13.6162 7.031 15.3056 6.04734 16.3349 4.78083" fill="#FBFAF8"/>
</g>
<defs>
<clipPath id="clip0_4_149">
<rect width="24" height="30" fill="white"/>
</clipPath>
</defs>
</svg>
