<svg width="21" height="21" viewBox="0 0 21 21" fill="none" xmlns="http://www.w3.org/2000/svg">
<g clip-path="url(#clip0_5_18)">
<path d="M19.841 21.0001C20.481 21.0001 21 20.4812 21 19.8411V1.15902C21 0.518848 20.481 0 19.841 0H1.15902C0.518766 0 0 0.518848 0 1.15902V19.8411C0 20.4812 0.518766 21.0001 1.15902 21.0001H19.841Z" fill="#191826"/>
<path d="M14.4895 21.0001V12.8678H17.2193L17.6279 9.69849H14.4895V7.67494C14.4895 6.75734 14.7444 6.13201 16.0602 6.13201L17.7385 6.13128V3.29669C17.4481 3.25805 16.4519 3.17175 15.293 3.17175C12.8732 3.17175 11.2167 4.64873 11.2167 7.36117V9.69849H8.47998V12.8678H11.2167V21.0001H14.4895Z" fill="#FBFAF8"/>
</g>
<defs>
<clipPath id="clip0_5_18">
<rect width="21" height="21" fill="white"/>
</clipPath>
</defs>
</svg>
